<svg width="94" height="72" viewBox="0 0 94 72" fill="none" xmlns="http://www.w3.org/2000/svg">
<g clip-path="url(#clip0_0_138)">
<path fill-rule="evenodd" clip-rule="evenodd" d="M93.527 25.1102C93.05 24.2279 92.2593 23.5845 91.3006 23.2992L13.6323 0.177142C13.2856 0.0740558 12.9274 0.0214844 12.568 0.0214844C10.9229 0.0214844 9.44757 1.12846 8.97985 2.71314L0.154544 32.6098C-0.403539 34.5006 0.596093 36.4869 2.39894 37.1835V68.2014C2.39894 70.2741 4.07819 71.9607 6.14232 71.9607H87.1517C89.2158 71.9607 90.895 70.2741 90.895 68.2014V37.9015L93.8259 27.9723C94.1106 27.0091 94.0043 25.9927 93.527 25.1102ZM88.164 68.2014C88.164 68.7618 87.71 69.2178 87.1519 69.2178H66.3026V67.5817C66.3026 66.8245 65.6912 66.2103 64.9369 66.2103C64.1827 66.2103 63.5713 66.8245 63.5713 67.5817V69.2178H6.14232C5.58424 69.2178 5.13017 68.7618 5.13017 68.2014V38.0123L17.7567 41.7712L16.8729 42.6587L10.6982 41.9794L9.41957 43.0192L14.3331 45.2091L12.6165 46.9333L10.7856 46.7534C10.7545 46.7504 10.7242 46.7623 10.7023 46.7851L10.0614 47.4288C10.02 47.4674 10.0168 47.5328 10.0553 47.5753C10.0648 47.5858 10.0764 47.5941 10.0892 47.5995L11.6824 48.3278C11.6876 48.5895 11.7891 48.8494 11.9876 49.0489C12.1865 49.2482 12.4453 49.3504 12.7057 49.3557L13.4327 50.9536C13.4561 51.0059 13.5171 51.029 13.5688 51.0059C13.5799 51.0007 13.5904 50.9941 13.599 50.9854L14.24 50.3376C14.2625 50.3159 14.2739 50.2855 14.2716 50.2542L14.0923 48.4194L15.8104 46.6937L17.9913 51.6283L19.0267 50.344L18.3505 44.1431L20.0359 42.4503L22.8732 43.2949V44.0446C22.8732 44.2971 23.0771 44.5017 23.3284 44.5017H26.927L37.2773 47.5829H23.3284C23.0771 47.5829 22.8732 47.7877 22.8732 48.04V50.9509C22.8732 51.2034 23.0771 51.408 23.3284 51.408H50.1266L63.6139 55.4231C63.587 55.5303 63.5711 55.6421 63.5711 55.7577V61.6697C63.5711 62.427 64.1824 63.0411 64.9367 63.0411C65.691 63.0411 66.3023 62.427 66.3023 61.6697V56.2233L80.3484 60.4048C80.695 60.5081 81.0535 60.5605 81.4129 60.5605C83.0578 60.5605 84.5331 59.4537 85.0013 57.8693L88.164 47.1545V68.2014ZM91.2075 27.1925L82.3829 57.0894C82.2561 57.5182 81.8574 57.8176 81.4131 57.8176C81.3164 57.8176 81.2194 57.8032 81.1247 57.7751L61.1353 51.8242L61.5982 50.2558C61.8124 49.5296 61.4002 48.7664 60.6769 48.5511C59.9543 48.3362 59.1938 48.7497 58.9794 49.4761L58.5165 51.0448L3.45615 34.6533C2.92106 34.4939 2.61448 33.9271 2.77334 33.3897L11.5982 3.4928C11.7247 3.064 12.1235 2.76434 12.5678 2.76434C12.6645 2.76434 12.7617 2.77874 12.8562 2.80686L67.9165 19.1986L67.3447 21.1353C67.1306 21.8617 67.5428 22.6249 68.2661 22.84C68.3956 22.8786 68.5262 22.8969 68.6548 22.8969C69.2439 22.8969 69.7876 22.5111 69.9635 21.915L70.5353 19.9783L90.5245 25.9291C90.784 26.0062 90.9979 26.1803 91.1267 26.419C91.2558 26.6571 91.2845 26.9321 91.2075 27.1925Z" fill="#ECB84C"/>
<path fill-rule="evenodd" clip-rule="evenodd" d="M64.0231 37.2148C63.3021 36.9993 62.5401 37.4132 62.3257 38.1399L60.6528 43.808C60.4386 44.5341 60.851 45.2976 61.5741 45.5127C61.7034 45.5513 61.8343 45.5696 61.9629 45.5696C62.5519 45.5696 63.0956 45.1837 63.2716 44.5874L64.9447 38.9193C65.1586 38.1931 64.746 37.4299 64.0231 37.2148Z" fill="#ECB84C"/>
<path fill-rule="evenodd" clip-rule="evenodd" d="M67.3693 25.8784C66.648 25.6633 65.8862 26.077 65.6718 26.8037L63.9987 32.4718C63.7846 33.1979 64.197 33.9611 64.9201 34.1762C65.0493 34.2149 65.18 34.2331 65.3088 34.2331C65.8979 34.2331 66.4416 33.8473 66.6175 33.2512L68.2906 27.5831C68.5048 26.8569 68.0924 26.0937 67.3693 25.8784Z" fill="#ECB84C"/>
<path fill-rule="evenodd" clip-rule="evenodd" d="M13.358 15.0531L14.6795 16.2057C14.6103 16.4581 14.6342 16.736 14.7683 16.984C14.9023 17.232 15.1215 17.4041 15.3698 17.4832L15.6147 19.2224C15.6225 19.2793 15.6741 19.3193 15.7303 19.3116C15.7424 19.3097 15.7542 19.3063 15.7652 19.3006L16.5629 18.8624C16.5907 18.848 16.6103 18.8222 16.6169 18.7913L16.9642 16.9808L19.1 15.8172L19.7944 21.1705L21.1505 20.2345L22.2571 14.0963L24.6028 12.8179C25.1099 12.5417 25.2979 11.9045 25.0227 11.3952C24.7475 10.886 24.113 10.6969 23.6059 10.9733L21.2602 12.2519L15.5323 9.8382L14.0122 10.4702L18.1033 13.9724L15.9698 15.1356L14.2653 14.4403C14.2361 14.4286 14.2038 14.4313 14.1765 14.4469L13.3799 14.8807C13.3291 14.9061 13.3077 14.9678 13.3325 15.0195C13.3385 15.0325 13.3473 15.0439 13.358 15.0531Z" fill="#ECB84C"/>
<path fill-rule="evenodd" clip-rule="evenodd" d="M55.823 42.0841L8.7422 28.0679C8.50208 27.9968 8.24784 28.1341 8.17638 28.3764L7.35246 31.1673C7.31809 31.2834 7.33129 31.4087 7.38887 31.5154C7.44646 31.6219 7.54387 31.7012 7.65972 31.7355L54.7407 45.7515C54.7831 45.7643 54.8268 45.7705 54.87 45.7705C54.9451 45.7705 55.0198 45.7517 55.0872 45.7152C55.1932 45.6573 55.2722 45.5595 55.3066 45.4434L56.1303 42.6525C56.2015 42.41 56.064 42.1559 55.823 42.0841Z" fill="#ECB84C"/>
<path fill-rule="evenodd" clip-rule="evenodd" d="M57.7777 35.4624L10.6967 21.4462C10.5811 21.4119 10.4563 21.4249 10.3503 21.4828C10.2442 21.5406 10.1652 21.6384 10.1311 21.7545L9.30717 24.5458C9.2357 24.7879 9.37317 25.0423 9.6142 25.1138L56.6952 39.1296C56.7378 39.1424 56.7813 39.1486 56.8245 39.1486C56.8996 39.1486 56.9743 39.1298 57.0416 39.0933C57.1477 39.0354 57.2267 38.9376 57.2611 38.8215L58.0847 36.0306C58.1562 35.7886 58.0187 35.5342 57.7777 35.4624Z" fill="#ECB84C"/>
<path fill-rule="evenodd" clip-rule="evenodd" d="M59.7318 28.8407L26.0564 18.8155C25.8156 18.744 25.5621 18.8816 25.4906 19.1241L24.6667 21.915C24.6323 22.0311 24.6455 22.1563 24.7031 22.2629C24.7607 22.3694 24.8581 22.4487 24.9739 22.483L58.6501 32.5083C58.6926 32.5211 58.7361 32.5273 58.7793 32.5273C58.8544 32.5273 58.9291 32.5086 58.9965 32.472C59.1025 32.4142 59.1815 32.3161 59.2159 32.2L60.0391 29.4089C60.1104 29.1669 59.9729 28.9127 59.7318 28.8407Z" fill="#ECB84C"/>
<path fill-rule="evenodd" clip-rule="evenodd" d="M60.7336 25.9053C60.9298 25.9053 61.1112 25.7767 61.1697 25.578L61.9938 22.7872C62.0282 22.6708 62.0152 22.5456 61.9576 22.4391C61.9 22.3325 61.8026 22.2532 61.687 22.2187L28.0109 12.1936C27.7703 12.122 27.5167 12.2599 27.4451 12.5021L26.6211 15.293C26.5868 15.4091 26.6 15.5344 26.6575 15.6409C26.7151 15.7474 26.8125 15.8267 26.9282 15.861L60.6041 25.8861C60.6473 25.8994 60.6908 25.9053 60.7336 25.9053Z" fill="#ECB84C"/>
<path fill-rule="evenodd" clip-rule="evenodd" d="M58.453 61.3956H9.34717C9.09567 61.3956 8.89197 61.6004 8.89197 61.8528V64.7636C8.89197 65.0162 9.09567 65.2208 9.34717 65.2208H58.453C58.7042 65.2208 58.9082 65.0162 58.9082 64.7636V61.8528C58.9082 61.6002 58.7042 61.3956 58.453 61.3956Z" fill="#ECB84C"/>
<path fill-rule="evenodd" clip-rule="evenodd" d="M58.453 54.4891L9.34717 54.4889C9.22654 54.4889 9.11069 54.5371 9.02534 54.6228C8.93999 54.7085 8.89197 54.8249 8.89197 54.946V57.8571C8.89197 58.1095 9.09567 58.3143 9.34717 58.3143H58.453C58.7042 58.3143 58.9082 58.1095 58.9082 57.8571V54.9463C58.9082 54.6939 58.7042 54.4891 58.453 54.4891Z" fill="#ECB04C"/>
</g>
<defs>
<clipPath id="clip0_0_138">
<rect width="94" height="72" fill="white"/>
</clipPath>
</defs>
</svg>
